<?xml version="1.0" encoding="UTF-8" standalone="no"?>
<!-- Created with Inkscape (http://www.inkscape.org/) -->

<svg
   width="512"
   height="512"
   viewBox="0 0 135.46666 135.46667"
   version="1.1"
   id="svg1"
   xml:space="preserve"
   inkscape:version="1.4.4 (dcaf3e7d9e, 2026-05-05)"
   sodipodi:docname="genesis.svg"
   xmlns:inkscape="http://www.inkscape.org/namespaces/inkscape"
   xmlns:sodipodi="http://sodipodi.sourceforge.net/DTD/sodipodi-0.dtd"
   xmlns="http://www.w3.org/2000/svg"
   xmlns:svg="http://www.w3.org/2000/svg"><sodipodi:namedview
     id="namedview1"
     pagecolor="#ffffff"
     bordercolor="#000000"
     borderopacity="0.25"
     inkscape:showpageshadow="2"
     inkscape:pageopacity="0.0"
     inkscape:pagecheckerboard="0"
     inkscape:deskcolor="#d1d1d1"
     inkscape:document-units="mm"
     inkscape:zoom="0.47215502"
     inkscape:cx="-274.27433"
     inkscape:cy="468.06661"
     inkscape:window-width="1920"
     inkscape:window-height="1043"
     inkscape:window-x="0"
     inkscape:window-y="0"
     inkscape:window-maximized="1"
     inkscape:current-layer="layer1" /><defs
     id="defs1" /><g
     inkscape:label="Layer 1"
     inkscape:groupmode="layer"
     id="layer1"><rect
       style="fill:#202c44;fill-opacity:1;fill-rule:evenodd;stroke:none;stroke-width:3.969;stroke-linecap:square;stroke-dasharray:none"
       id="rect1"
       width="135.46666"
       height="135.46666"
       x="0"
       y="0"
       sodipodi:insensitive="true" /><g
       id="g3"
       transform="matrix(1.1034054,0,0,1.1034054,-13.146717,-8.8193093)"><g
         style="fill:none;fill-opacity:1;stroke:#ffffff;stroke-opacity:1"
         id="g1"
         transform="matrix(0.60527666,0,0,0.60527666,46.586402,33.478537)"><path
           d="M 34.0842,5.00024 C 36.1659,32.3071 39.9734,45.0186 60.8435,53.8204 43.2615,68.9484 37.8959,81.9723 34.0842,111 31.2151,79.9997 26.929,66.1442 9.84351,53.8204 26.7067,45.9754 31.8813,35.3111 34.0842,6.0034"
           stroke="#01995c"
           stroke-width="10"
           stroke-linecap="round"
           id="path1"
           style="fill:none;fill-opacity:1;stroke:#ffffff;stroke-opacity:1" /></g><g
         style="fill:#ffffff;fill-opacity:1;stroke:#ffffff;stroke-opacity:1"
         id="g2"
         transform="matrix(0.60527666,0,0,0.60527666,82.324077,69.474959)"><path
           d="m 13.7161,18.3907 c -0.2767,1.1741 -0.6008,2.2831 -0.9821,3.3301 -1.6067,4.4112 -4.16337,7.62 -7.86233,10.0651 3.99221,4.4544 6.73273,8.6865 8.67393,13.4408 0.4793,1.1739 0.9047,2.3731 1.2893,3.605 0.3907,-1.3225 0.8246,-2.6152 1.3166,-3.889 1.9255,-4.9863 4.6376,-9.5664 8.4707,-14.5951 -4.0334,-1.9669 -7.0559,-4.7315 -9.357,-8.7804 -0.5611,-0.9875 -1.0738,-2.0457 -1.5491,-3.1765 z"
           fill="#01995c"
           stroke="#01995c"
           stroke-width="6"
           id="path1-6"
           style="fill:#ffffff;fill-opacity:1;stroke:#ffffff;stroke-opacity:1" /></g></g></g></svg>
